<?xml version="1.0" ?><!DOCTYPE svg  PUBLIC '-//W3C//DTD SVG 1.1//EN'  'http://www.w3.org/Graphics/SVG/1.1/DTD/svg11.dtd'><svg enable-background="new 0 0 512 512" height="512px" id="Layer_1" version="1.1" viewBox="0 0 512 512" width="512px" xml:space="preserve" xmlns="http://www.w3.org/2000/svg" xmlns:xlink="http://www.w3.org/1999/xlink"><g><circle cx="255.429" cy="255.429" fill="#221E1C" r="255.429"/><path d="M255.423,82.381c-98.001,0-177.454,79.436-177.454,177.477c0,78.369,50.828,144.87,121.356,168.36   c8.884,1.612,12.121-3.879,12.121-8.566c0-4.21-0.139-15.374-0.245-30.187c-49.357,10.725-59.764-23.782-59.764-23.782   c-8.077-20.495-19.715-25.934-19.715-25.934c-16.105-11.031,1.231-10.807,1.231-10.807c17.821,1.261,27.188,18.284,27.188,18.284   c15.814,27.128,41.526,19.268,51.648,14.736c1.595-11.476,6.176-19.265,11.247-23.71c-39.408-4.462-80.829-19.73-80.829-87.717   c0-19.343,6.924-35.201,18.251-47.597c-1.813-4.498-7.897-22.534,1.754-46.975c0,0,14.882-4.767,48.796,18.208   c14.153-3.946,29.353-5.922,44.426-5.984c15.074,0.063,30.26,2.039,44.413,5.984c33.9-22.975,48.782-18.208,48.782-18.208   c9.665,24.44,3.581,42.477,1.748,46.975c11.353,12.396,18.244,28.254,18.244,47.597c0,68.186-41.507,83.186-81.034,87.581   c6.361,5.481,12.055,16.289,12.055,32.849c0,23.726-0.219,42.857-0.219,48.686c0,4.74,3.211,10.248,12.207,8.51   c70.442-23.487,121.244-89.961,121.244-168.304C432.876,161.817,353.45,82.381,255.423,82.381" fill="#FFFFFF"/></g></svg>