<?xml version="1.0" ?><!DOCTYPE svg  PUBLIC '-//W3C//DTD SVG 1.1//EN'  'http://www.w3.org/Graphics/SVG/1.1/DTD/svg11.dtd'><svg enable-background="new 0 0 512 512" height="512px" id="Layer_1" version="1.1" viewBox="0 0 512 512" width="512px" xml:space="preserve" xmlns="http://www.w3.org/2000/svg" xmlns:xlink="http://www.w3.org/1999/xlink"><g><path d="M511.865,255.929c0,141.35-114.583,255.932-255.929,255.932C114.583,511.861,0,397.279,0,255.929   C0,114.583,114.583,0,255.937,0C397.282,0,511.865,114.583,511.865,255.929z" fill="#38A8E0"/><path d="M426.54,150.102c-12.556,5.571-26.054,9.332-40.208,11.021c14.453-8.663,25.569-22.376,30.783-38.726   c-13.512,8.019-28.488,13.853-44.44,16.993c-12.782-13.617-30.982-22.11-51.113-22.11c-38.663,0-70.01,31.35-70.01,70.006   c0,5.499,0.617,10.825,1.804,15.945c-58.177-2.908-109.754-30.776-144.291-73.15c-6.022,10.357-9.472,22.379-9.472,35.21   c0,24.276,12.351,45.724,31.128,58.263c-11.468-0.352-22.26-3.519-31.698-8.755v0.882c0,33.911,24.137,62.209,56.147,68.647   c-5.864,1.592-12.065,2.467-18.446,2.467c-4.497,0-8.901-0.45-13.166-1.273c8.907,27.818,34.756,48.049,65.387,48.629   c-23.945,18.771-54.124,29.968-86.95,29.968c-5.639,0-11.21-0.342-16.682-0.981c30.976,19.849,67.774,31.439,107.326,31.439   c128.764,0,199.179-106.653,199.179-199.179c0-3.024-0.08-6.042-0.192-9.067C405.275,176.478,417.135,164.147,426.54,150.102z" fill="#FFFFFF"/></g></svg>